<?xml version="1.0" standalone="no"?>
<!DOCTYPE svg PUBLIC "-//W3C//DTD SVG 20010904//EN"
 "http://www.w3.org/TR/2001/REC-SVG-20010904/DTD/svg10.dtd">
<svg version="1.0" xmlns="http://www.w3.org/2000/svg"
 width="12.000000pt" height="12.000000pt" viewBox="0 0 300.000000 300.000000"
 preserveAspectRatio="xMidYMid meet">
<g transform="translate(0.000000,300.000000) scale(0.100000,-0.100000)"
fill="#ffffff" stroke="none">
<path d="M1288 2290 l-93 -101 -95 -32 c-52 -18 -138 -58 -191 -89 -92 -55
-269 -181 -316 -227 -12 -11 -24 -21 -27 -21 -2 0 -18 13 -34 29 -56 57 -207
78 -251 36 -9 -8 -30 -26 -48 -40 -45 -36 -66 -113 -67 -240 -1 -55 3 -122 7
-149 8 -45 7 -48 -10 -41 -10 4 -51 15 -90 25 -70 17 -73 17 -73 -1 0 -19 4
-21 104 -44 38 -8 74 -20 80 -24 6 -5 34 -14 61 -19 52 -10 570 -131 785 -183
69 -17 134 -32 145 -35 11 -2 65 -15 120 -28 55 -14 111 -27 125 -30 14 -2 72
-16 130 -30 80 -20 454 -108 680 -161 8 -2 89 -21 180 -43 91 -23 244 -59 340
-81 96 -22 192 -45 213 -50 35 -8 38 -7 35 13 -2 11 -10 21 -18 21 -10 0 -17
15 -22 50 -16 120 -115 373 -183 465 -25 34 -35 56 -30 68 4 9 9 31 11 47 8
63 13 82 43 171 27 81 31 105 31 202 0 122 -4 142 -29 142 -19 0 -201 -69
-252 -95 -28 -15 -34 -15 -64 -1 -18 9 -36 16 -40 16 -5 0 -63 32 -131 71 -78
45 -169 87 -246 114 -68 24 -180 66 -250 94 -70 28 -146 54 -168 57 -34 6 -46
14 -73 53 -74 109 -148 191 -172 191 -17 0 -50 -28 -117 -100z m182 -27 c34
-43 66 -90 72 -104 11 -31 28 -40 128 -69 41 -12 113 -38 159 -57 47 -19 137
-53 201 -75 73 -25 163 -66 245 -113 72 -41 146 -80 165 -86 19 -7 41 -16 47
-22 18 -13 41 -6 177 51 l118 51 -4 -117 c-3 -95 -8 -126 -27 -167 -19 -43
-31 -91 -58 -238 -4 -21 2 -38 27 -68 41 -51 120 -219 160 -338 31 -95 36
-126 21 -135 -13 -8 -233 45 -366 89 -40 13 -61 19 -298 75 -71 16 -135 37
-143 45 -9 8 -21 15 -29 15 -29 0 -32 239 -5 333 14 47 89 106 136 107 82 0
144 -42 216 -149 25 -37 53 -59 63 -49 4 3 -12 35 -34 71 -23 35 -41 69 -41
75 0 21 -71 72 -122 87 -94 28 -128 21 -205 -41 -63 -52 -78 -105 -78 -286 0
-127 -2 -147 -15 -144 -8 3 -49 10 -90 16 -65 10 -505 112 -1417 328 -166 39
-245 62 -249 72 -13 33 -16 236 -4 295 10 51 19 67 57 103 50 46 88 53 164 31
35 -11 129 -96 129 -117 0 -5 14 -23 32 -41 21 -21 34 -29 41 -22 7 7 6 16 -5
28 -8 10 -21 33 -28 52 -13 33 -13 35 21 63 171 146 358 261 499 309 l97 33
84 92 c46 51 87 93 90 93 4 1 35 -34 69 -76z"/>
<path d="M322 1788 c-17 -17 -15 -55 5 -62 25 -10 61 29 47 52 -14 22 -36 26
-52 10z"/>
<path d="M424 1736 c-10 -27 4 -46 33 -46 37 0 56 13 51 36 -4 25 -75 33 -84
10z"/>
<path d="M261 1676 c-21 -26 -9 -51 24 -51 27 0 30 3 30 30 0 23 -5 31 -21 33
-11 2 -26 -4 -33 -12z"/>
<path d="M352 1658 c-15 -15 -16 -82 -2 -109 15 -27 64 -25 84 3 22 31 20 74
-4 98 -22 22 -60 26 -78 8z m66 -23 c2 -1 5 -15 8 -30 6 -32 -14 -64 -27 -43
-7 10 -9 10 -9 -1 0 -11 -3 -11 -15 -1 -15 13 -21 71 -8 83 5 6 41 0 51 -8z"/>
<path d="M1013 1649 c-39 -14 -59 -89 -31 -117 17 -17 84 -15 102 4 17 16 21
70 8 91 -12 19 -55 31 -79 22z"/>
<path d="M1194 1535 c-25 -65 63 -113 149 -80 12 5 17 2 17 -8 0 -9 12 -25 27
-37 22 -17 38 -20 87 -18 53 3 61 6 61 23 0 17 -8 20 -55 23 -62 4 -80 14 -80
49 0 32 -23 39 -64 19 -52 -25 -96 -18 -96 14 0 10 -7 21 -16 24 -22 8 -24 8
-30 -9z"/>
<path d="M1857 1360 c-19 -15 -27 -31 -27 -54 0 -41 15 -56 56 -56 48 0 61 19
55 76 -5 43 -9 49 -32 52 -14 2 -37 -6 -52 -18z"/>
<path d="M2155 1364 c-22 -23 -15 -58 12 -62 30 -4 53 39 33 63 -16 19 -25 19
-45 -1z"/>
<path d="M2254 1316 c-12 -31 4 -47 43 -44 33 3 38 6 38 28 0 22 -5 25 -38 28
-26 2 -39 -1 -43 -12z"/>
<path d="M2095 1250 c-29 -33 7 -78 40 -50 21 17 19 47 -4 59 -14 8 -23 6 -36
-9z"/>
<path d="M2182 1238 c-19 -19 -15 -92 6 -118 31 -38 92 -4 92 51 0 54 -66 99
-98 67z m69 -35 c11 -13 11 -15 1 -9 -11 7 -11 4 -1 -12 10 -17 10 -23 -5 -38
-13 -13 -22 -15 -34 -8 -16 11 -26 49 -18 71 7 18 41 16 57 -4z"/>
</g>
</svg>
